<svg width="58" height="58" viewBox="0 0 58 58" fill="none" xmlns="http://www.w3.org/2000/svg">
<path d="M56.0003 55.9165H2.66699" stroke="white" stroke-width="4" stroke-linecap="round"/>
<path d="M42.6672 55.9167V13.25C42.6672 8.22071 42.6672 5.70871 41.1045 4.14604C39.5418 2.58337 37.0298 2.58337 32.0005 2.58337H26.6672C21.6378 2.58337 19.1258 2.58337 17.5632 4.14604C16.0005 5.70871 16.0005 8.22071 16.0005 13.25V55.9167" stroke="white" stroke-width="4"/>
<path d="M29.3338 55.9167V47.9167M24.0005 29.25H34.6672M12.0005 26.5834H16.0005M12.0005 34.5834H16.0005M42.6672 26.5834H46.6672M42.6672 34.5834H46.6672M12.0005 18.5834H16.0005M42.6672 18.5834H46.6672" stroke="white" stroke-width="4" stroke-linecap="round"/>
<path d="M29.3338 21.25V10.5834M34.6672 15.9167H24.0005" stroke="white" stroke-width="4" stroke-linecap="round" stroke-linejoin="round"/>
<path d="M51.3335 19.9167C51.3335 20.4471 51.5442 20.9559 51.9193 21.3309C52.2944 21.706 52.8031 21.9167 53.3335 21.9167C53.8639 21.9167 54.3726 21.706 54.7477 21.3309C55.1228 20.9559 55.3335 20.4471 55.3335 19.9167H51.3335ZM55.3335 30.5834C55.3335 30.0529 55.1228 29.5442 54.7477 29.1692C54.3726 28.7941 53.8639 28.5834 53.3335 28.5834C52.8031 28.5834 52.2944 28.7941 51.9193 29.1692C51.5442 29.5442 51.3335 30.0529 51.3335 30.5834H55.3335ZM44.0002 12.5834C45.9148 12.5834 47.2002 12.5834 48.1788 12.6847C49.1255 12.7807 49.5628 12.9514 49.8535 13.146L52.0748 9.81804C51.0188 9.11404 49.8482 8.83405 48.5842 8.70605C47.3548 8.58071 45.8322 8.58338 44.0002 8.58338V12.5834ZM55.3335 19.9167C55.3335 18.0847 55.3335 16.562 55.2108 15.3327C55.0828 14.0714 54.8028 12.898 54.0962 11.842L50.7708 14.066C50.9655 14.354 51.1362 14.7914 51.2322 15.738C51.3308 16.7167 51.3335 18.0047 51.3335 19.9167H55.3335ZM49.8535 13.146C50.2162 13.3914 50.5282 13.7034 50.7708 14.066L54.0962 11.842C53.5628 11.042 52.8748 10.354 52.0748 9.81804L49.8535 13.146ZM51.3335 30.5834V55.9167H55.3335V30.5834H51.3335ZM7.3335 42.5834C7.3335 42.0529 7.12279 41.5442 6.74771 41.1692C6.37264 40.7941 5.86393 40.5834 5.3335 40.5834C4.80307 40.5834 4.29436 40.7941 3.91929 41.1692C3.54421 41.5442 3.3335 42.0529 3.3335 42.5834H7.3335ZM3.3335 31.9167C3.3335 32.4471 3.54421 32.9559 3.91929 33.3309C4.29436 33.706 4.80307 33.9167 5.3335 33.9167C5.86393 33.9167 6.37264 33.706 6.74771 33.3309C7.12279 32.9559 7.3335 32.4471 7.3335 31.9167H3.3335ZM14.6668 8.58338C12.8348 8.58338 11.3122 8.58338 10.0828 8.70605C8.8215 8.83405 7.64817 9.11404 6.59217 9.81804L8.81617 13.146C9.10417 12.9514 9.5415 12.7807 10.4882 12.6847C11.4668 12.586 12.7548 12.5834 14.6668 12.5834V8.58338ZM7.3335 19.9167C7.3335 18.002 7.3335 16.7167 7.43483 15.738C7.53083 14.7914 7.7015 14.354 7.89617 14.066L4.56817 11.842C3.86417 12.898 3.58417 14.0714 3.45617 15.3327C3.33083 16.562 3.3335 18.0847 3.3335 19.9167H7.3335ZM6.59217 9.81804C5.79129 10.3545 5.1036 11.0405 4.56817 11.842L7.89617 14.066C8.13943 13.7019 8.45205 13.3893 8.81617 13.146L6.59217 9.81804ZM3.3335 42.5834V55.9167H7.3335V42.5834H3.3335ZM3.3335 19.9167V31.9167H7.3335V19.9167H3.3335Z" fill="white"/>
<path d="M24.0005 37.2502H25.3338M34.6672 37.2502H30.6672" stroke="white" stroke-width="4" stroke-linecap="round"/>
</svg>
