<svg width="49" height="48" viewBox="0 0 49 48" fill="none" xmlns="http://www.w3.org/2000/svg">
<path d="M4.66504 12C4.66504 8.99 6.22504 5.84 8.66504 4C8.66504 5.69 10.045 8 12.665 8C14.2563 8 15.7825 8.63214 16.9077 9.75736C18.0329 10.8826 18.665 12.4087 18.665 14C18.665 14.772 18.507 15.504 18.241 16.182C19.7246 17.3594 21.1855 18.5649 22.623 19.798L18.463 23.958C17.2305 22.52 16.0249 21.0591 14.847 19.576C14.1528 19.8531 13.4125 19.9969 12.665 20C8.24504 20 4.66504 16.42 4.66504 12ZM28.969 25.696L31.651 23.014C32.893 23.6534 34.2682 23.9912 35.665 24C38.052 24 40.3412 23.0518 42.029 21.364C43.7168 19.6761 44.665 17.3869 44.665 15C44.665 13.55 44.289 12.198 43.679 10.986L36.665 18L32.665 14L39.679 6.986C38.4371 6.3466 37.0619 6.00881 35.665 6C33.2781 6 30.9889 6.94821 29.3011 8.63604C27.6133 10.3239 26.665 12.6131 26.665 15C26.665 16.45 27.041 17.802 27.651 19.014L6.66504 40L10.665 44L24.361 30.304C28.1278 34.1687 32.1194 37.8077 36.315 41.202L39.165 43.5L42.165 40.5L39.867 37.65C36.4728 33.4544 32.8338 29.4627 28.969 25.696Z" fill="#E52938"/>
</svg>
